<svg xmlns="http://www.w3.org/2000/svg" width="512" height="512" viewBox="0 0 512 512"><g fill="#008cdb"><path d="M46 225.711c0-25.547 20.707-46.26 46.259-46.26 25.542 0 46.257 20.713 46.257 46.26 0 25.543-20.715 46.256-46.257 46.256-25.552 0-46.259-20.713-46.259-46.256zM131.971 388.633c0-44.762 36.283-81.051 81.043-81.051 44.766 0 81.053 36.289 81.053 81.051s-36.287 81.05-81.053 81.05c-44.76 0-81.043-36.288-81.043-81.05zM262.145 144.246c0-56.288 45.637-101.929 101.922-101.929C420.358 42.317 466 87.958 466 144.246c0 56.29-45.642 101.929-101.934 101.929-56.285 0-101.921-45.639-101.921-101.929z"/></g></svg>